HIERARCHY
ROOT Hips
{
	OFFSET -3.958830 18.904000 13.208200
	CHANNELS 6 Xposition Yposition Zposition Zrotation Yrotation Xrotation 
	JOINT LHipJoint
	{
		OFFSET 0.000000 0.000000 0.000000
		CHANNELS 3 Zrotation Yrotation Xrotation
		JOINT LeftUpLeg
		{
			OFFSET 1.800000 -1.400000 0.085000
			CHANNELS 3 Zrotation Yrotation Xrotation
			JOINT LeftLeg
			{
				OFFSET 2.215000 -6.000000 0.000000
				CHANNELS 3 Zrotation Yrotation Xrotation
				JOINT LeftFoot
				{
					OFFSET 2.500000 -6.900000 0.000000
					CHANNELS 3 Zrotation Yrotation Xrotation
					JOINT LeftToeBase
					{
						OFFSET 0.200000 -0.500000 1.950000
						CHANNELS 3 Zrotation Yrotation Xrotation
						End Site
						{
							OFFSET 0.000000 0.000000 0.000000
						}
					}
				}
			}
		}
	}
	JOINT RHipJoint
	{
		OFFSET 0.000000 0.000000 0.000000
		CHANNELS 3 Zrotation Yrotation Xrotation
		JOINT RightUpLeg
		{
			OFFSET -1.800000 -1.400000 0.085000
			CHANNELS 3 Zrotation Yrotation Xrotation
			JOINT RightLeg
			{
				OFFSET -2.215000 -6.000000 0.000000
				CHANNELS 3 Zrotation Yrotation Xrotation
				JOINT RightFoot
				{
					OFFSET -2.500000 -6.900000 0.000000
					CHANNELS 3 Zrotation Yrotation Xrotation
					JOINT RightToeBase
					{
						OFFSET -0.200000 -0.500000 1.950000
						CHANNELS 3 Zrotation Yrotation Xrotation
						End Site
						{
							OFFSET 0.000000 0.000000 0.000000
						}
					}
				}
			}
		}
	}
	JOINT LowerBack
	{
		OFFSET 0.000000 0.000000 0.000000
		CHANNELS 3 Zrotation Yrotation Xrotation
		JOINT Spine
		{
			OFFSET -0.087000 1.940000 -0.288900
			CHANNELS 3 Zrotation Yrotation Xrotation
			JOINT Spine1
			{
				OFFSET 0.000000 1.950000 0.060000
				CHANNELS 3 Zrotation Yrotation Xrotation
				JOINT Neck
				{
					OFFSET 0.000000 0.000000 0.000000
					CHANNELS 3 Zrotation Yrotation Xrotation
					JOINT Neck1
					{
						OFFSET 0.000000 1.600000 0.340000
						CHANNELS 3 Zrotation Yrotation Xrotation
						JOINT Head
						{
							OFFSET 0.000000 1.667000 -0.240000
							CHANNELS 3 Zrotation Yrotation Xrotation
							End Site
							{
								OFFSET 0.000000 0.000000 0.000000
							}
						}
					}
				}
				JOINT LeftShoulder
				{
					OFFSET 0.000000 0.000000 0.000000
					CHANNELS 3 Zrotation Yrotation Xrotation
					JOINT LeftArm
					{
						OFFSET 2.700000 1.550000 -0.730000
						CHANNELS 3 Zrotation Yrotation Xrotation
						JOINT LeftForeArm
						{
							OFFSET 5.450000 0.000000 0.000000
							CHANNELS 3 Zrotation Yrotation Xrotation
							JOINT LeftHand
							{
								OFFSET 3.450000 0.000000 0.000000
								CHANNELS 3 Zrotation Yrotation Xrotation
								JOINT LeftHandIndex1
								{
									OFFSET 0.750000 0.000000 0.000000
									CHANNELS 3 Zrotation Yrotation Xrotation
									End Site
									{
										OFFSET 0.000000 0.000000 0.000000
									}
								}
							}
						}
					}
				}
				JOINT RightShoulder
				{
					OFFSET 0.000000 0.000000 0.000000
					CHANNELS 3 Zrotation Yrotation Xrotation
					JOINT RightArm
					{
						OFFSET -2.700000 1.550000 -0.730000
						CHANNELS 3 Zrotation Yrotation Xrotation
						JOINT RightForeArm
						{
							OFFSET -5.450000 0.000000 0.000000
							CHANNELS 3 Zrotation Yrotation Xrotation
							JOINT RightHand
							{
								OFFSET -3.450000 0.000000 0.000000
								CHANNELS 3 Zrotation Yrotation Xrotation
								JOINT RightHandIndex1
								{
									OFFSET -0.750000 0.000000 0.000000
									CHANNELS 3 Zrotation Yrotation Xrotation
									End Site
									{
										OFFSET 0.000000 0.000000 0.000000
									}
								}
							}
						}
					}
				}
			}
		}
	}
}
MOTION
Frames: 4
Frame Time: 0.016667
-1.456410 16.412560 -4.933140 -6.605778 2.576170 -7.271715 -15.389133 13.100737 2.977234 1.584805 -2.322258 25.553093 -1.504168 10.137798 38.635043 0.618638 9.826246 1.497085 0.481050 0.372090 0.065150 18.403542 -8.250376 4.788975 8.179195 10.224665 -52.289336 3.600460 -6.974000 38.994223 -0.790113 -4.777529 2.449265 0.275420 0.580900 0.608510 -3.474924 -4.382885 -8.317558 9.782404 -12.784254 37.223404 -4.439126 -10.937853 6.082878 -0.869754 -3.059227 -5.738592 -7.068615 0.491666 23.579130 0.746260 0.273830 -32.522080 -6.325067 -4.128016 -0.214892 -10.455927 -26.117516 -3.028998 109.143645 -36.490267 -55.407594 -3.885802 2.510797 0.874220 0.157320 0.335710 0.482300 8.798731 0.520312 1.533337 34.422602 1.357759 -13.526036 -73.171570 43.742784 -29.086180 1.620508 -1.309219 -0.280500 0.506530 0.048830 0.070010 
-1.455850 16.353830 -4.935910 -6.505406 2.686024 -7.825535 -15.394356 13.078972 3.002387 1.500250 -2.260848 26.405027 -1.304542 10.103037 38.680035 0.635565 9.867030 1.476869 0.495020 0.383900 0.075580 18.402109 -8.229395 4.805122 8.012833 10.239836 -52.744644 2.939299 -7.004067 40.598729 -0.841347 -5.035747 2.350975 0.279650 0.566160 0.614220 -3.463135 -4.395474 -8.337334 9.554007 -12.860232 38.324231 -4.289785 -11.089447 5.696253 -0.962857 -3.096908 -5.541480 -7.099047 0.269544 23.403367 0.951970 0.003160 -32.970650 -6.502779 -4.008691 -0.473752 -8.938174 -25.820159 -3.496561 108.795665 -35.824519 -53.968833 -3.881854 2.537313 0.877250 0.145790 0.342170 0.478220 9.217181 0.408585 1.426139 33.255705 1.230221 -13.432563 -74.837099 42.976223 -29.586599 1.646949 -1.343140 -0.269570 0.496020 0.046310 0.068700 
-1.446180 16.138720 -4.950950 -6.529826 3.112559 -8.625940 -15.376608 12.883927 2.965068 1.406533 -2.450422 27.774524 -1.131888 10.201645 39.529445 0.659107 10.051107 1.410113 0.522350 0.409890 0.091000 18.457048 -8.093738 5.016058 7.025150 10.887914 -55.863406 2.751984 -7.803914 45.800144 -1.011659 -6.058098 1.990786 0.313200 0.565360 0.607630 -3.558987 -4.231807 -8.412912 10.156778 -13.696620 40.741438 -4.436070 -11.805727 3.513728 -1.224585 -3.234485 -4.696274 -6.982479 -0.043167 21.955971 1.315930 -0.683140 -32.708660 -7.291126 -3.084987 -1.432125 -4.106420 -25.098095 -4.405413 107.251859 -33.895973 -48.805230 -3.902474 2.592498 0.858240 0.147620 0.321370 0.475160 10.720843 -0.736600 0.806110 29.371423 0.953031 -12.543828 -79.820186 40.906731 -30.742082 1.717051 -1.457240 -0.271020 0.494190 0.042300 0.067780 
-1.441230 15.897800 -4.975490 -6.412674 3.314998 -10.232907 -15.393585 12.751104 2.977329 1.528576 -2.787516 29.693138 -1.748797 10.944438 41.230565 0.774874 10.471297 1.272378 0.525850 0.407450 0.072420 18.471627 -7.914974 5.194946 5.865958 11.492462 -58.172968 2.812500 -8.639869 50.855551 -1.209190 -7.089822 1.645239 0.306680 0.572830 0.637230 -3.543552 -4.252567 -8.525744 9.889197 -13.922297 44.553071 -3.953384 -12.041023 1.454740 -1.495446 -3.286930 -4.322758 -6.901263 -0.049914 21.180810 2.052100 -1.160580 -32.567740 -7.801947 -3.031965 -2.082888 1.659809 -23.272570 -5.918636 104.186412 -32.284541 -43.298424 -3.934085 2.662841 0.846030 0.149980 0.317740 0.476720 11.918965 -0.848027 0.674146 25.571590 -0.560371 -12.550169 -84.599581 37.384669 -30.819508 1.801446 -1.598067 -0.246290 0.472020 0.059120 0.081020 
